<svg xmlns="http://www.w3.org/2000/svg" xmlns:xlink="http://www.w3.org/1999/xlink" viewBox="0 0 220.53 154.34"><defs><style>.cls-1,.cls-4,.cls-5{fill:none;}.cls-2{clip-path:url(#clip-path);}.cls-3{fill:#fff;}.cls-4{stroke:#000;stroke-width:0.73px;}.cls-5{stroke:#e07b11;stroke-width:2px;}</style><clipPath id="clip-path" transform="translate(0 0)"><rect class="cls-1" width="220.53" height="154.34"/></clipPath></defs><g id="Calque_2" data-name="Calque 2"><g id="Calque_1-2" data-name="Calque 1"><g class="cls-2"><path class="cls-3" d="M3.05,55.66a8.81,8.81,0,0,0-.21,12.45L69.08,136.7a8.79,8.79,0,0,0,12.44.22l43.23-41.75A8.8,8.8,0,0,0,125,82.72L58.73,14.13a8.8,8.8,0,0,0-12.44-.22Z" transform="translate(0 0)"/><path class="cls-4" d="M3.05,55.66a8.81,8.81,0,0,0-.21,12.45L69.08,136.7a8.79,8.79,0,0,0,12.44.22l43.23-41.75A8.8,8.8,0,0,0,125,82.72L58.73,14.13a8.8,8.8,0,0,0-12.44-.22Z" transform="translate(0 0)"/><path class="cls-3" d="M57.3,14.35A12,12,0,0,0,48.56,28.9l21.52,86.31A12,12,0,0,0,84.63,124l52.11-13a12,12,0,0,0,8.74-14.55L124,10.1a12,12,0,0,0-14.55-8.74Z" transform="translate(0 0)"/><path class="cls-5" d="M57.3,14.35A12,12,0,0,0,48.56,28.9l21.52,86.31A12,12,0,0,0,84.63,124l52.11-13a12,12,0,0,0,8.74-14.55L124,10.1a12,12,0,0,0-14.55-8.74Z" transform="translate(0 0)"/><path class="cls-3" d="M123.27,4.59a8.81,8.81,0,0,0-10.89,6L86.1,102.29a8.8,8.8,0,0,0,6,10.88l57.78,16.57a8.79,8.79,0,0,0,10.88-6L187.08,32a8.8,8.8,0,0,0-6-10.88Z" transform="translate(0 0)"/><path class="cls-4" d="M123.27,4.59a8.81,8.81,0,0,0-10.89,6L86.1,102.29a8.8,8.8,0,0,0,6,10.88l57.78,16.57a8.79,8.79,0,0,0,10.88-6L187.08,32a8.8,8.8,0,0,0-6-10.88Z" transform="translate(0 0)"/><path class="cls-3" d="M178,32a12,12,0,0,0-17,0L98.16,94.88a12,12,0,0,0,0,17l38,38a12,12,0,0,0,17,0L216,86.92a12,12,0,0,0,0-17Z" transform="translate(0 0)"/><path class="cls-5" d="M178,32a12,12,0,0,0-17,0L98.16,94.88a12,12,0,0,0,0,17l38,38a12,12,0,0,0,17,0L216,86.92a12,12,0,0,0,0-17Z" transform="translate(0 0)"/></g></g></g></svg>